<svg width="405px" height="407px" viewBox="0 0 405 407" version="1.1" xmlns="http://www.w3.org/2000/svg" xmlns:xlink="http://www.w3.org/1999/xlink">
    <defs>
        <path d="M0,406 L0,0.071 C215.194,20.683 386.099,191.733 404.708,406 L0,406 Z" id="path-1"></path>
        <linearGradient x1="12.8671354%" y1="132.192602%" x2="-59.1775042%" y2="-24.7899494%" id="linearGradient-3">
            <stop stop-color="#FFFFFF" offset="0%"></stop>
            <stop stop-color="#030303" offset="100%"></stop>
        </linearGradient>
        <polygon id="path-4" points="0 0.986742219 21.4634 0.986742219 21.4634 17.1116 0 17.1116"></polygon>
        <polygon id="path-6" points="0 0.9609 70.2729 0.9609 70.2729 23.1479 0 23.1479"></polygon>
        <polygon id="path-8" points="0 0.115 38.8184 0.115 38.8184 33.257 0 33.257"></polygon>
        <polygon id="path-10" points="0 0.1146 70.2754 0.1146 70.2754 33.2566 0 33.2566"></polygon>
        <polygon id="path-12" points="0 0.661412651 38.8187 0.661412651 38.8187 48.8367 0 48.8367"></polygon>
        <polygon id="path-14" points="0 0.2544 97.8564 0.2544 97.8564 54.0014 0 54.0014"></polygon>
        <polygon id="path-16" points="0 0.8445 56.2759 0.8445 56.2759 71.9005 0 71.9005"></polygon>
        <polygon id="path-18" points="0 0.8449 97.8574 0.8449 97.8574 71.9009 0 71.9009"></polygon>
        <polygon id="path-20" points="0 0.9934005 56.2753 0.9934005 56.2753 89.6841 0 89.6841"></polygon>
        <polygon id="path-22" points="0 0.0825 2.1762 0.0825 2.1762 89.7405 0 89.7405"></polygon>
        <polygon id="path-24" points="0.1482 0.2725 20.1234872 0.2725 20.1234872 25 0.1482 25"></polygon>
        <polygon id="path-26" points="0.5372 0.5238 40.1482 0.5238 40.1482 34 0.5372 34"></polygon>
        <polygon id="path-28" points="0.7115 0.9718 65.5375 0.9718 65.5375 43 0.7115 43"></polygon>
        <polygon id="path-30" points="0.6847 0.6944 92.7117 0.6944 92.7117 50 0.6847 50"></polygon>
        <polygon id="path-32" points="0.3462 0.8967 115.6852 0.8967 115.6852 55 0.3462 55"></polygon>
        <polygon id="path-34" points="0 0.501349567 67.3464 0.501349567 67.3464 56 0 56"></polygon>
        <polygon id="path-36" points="0 0.5327 4.4946 0.5327 4.4946 56 0 56"></polygon>
        <polygon id="path-38" points="0.4944 0.897 125.0874 0.897 125.0874 55 0.4944 55"></polygon>
        <polygon id="path-40" points="0.0873 0.6946 105.5473 0.6946 105.5473 50 0.0873 50"></polygon>
        <polygon id="path-42" points="0.5452 0.9719 79.4802 0.9719 79.4802 43 0.5452 43"></polygon>
        <polygon id="path-44" points="0.4806 0.5242 52.2316 0.5242 52.2316 34 0.4806 34"></polygon>
        <polygon id="path-46" points="0.2309 0.2727 28.9799 0.2727 28.9799 25 0.2309 25"></polygon>
        <polygon id="path-48" points="0.9799 0.4358 13.3899 0.4358 13.3899 17 0.9799 17"></polygon>
        <polygon id="path-50" points="0 0.6941 67.3463 0.6941 67.3463 105.9031 0 105.9031"></polygon>
        <polygon id="path-52" points="0 0.189508265 2.1766 0.189508265 2.1766 104.5393 0 104.5393"></polygon>
    </defs>
    <g id="BottomLeft" stroke="none" stroke-width="1" fill="none" fill-rule="evenodd">
        <g id="Group" transform="translate(0.000000, -2.000000)">
            <g id="Group-422" transform="translate(0.000000, 3.000000)">
                <mask id="mask-2" fill="white">
                    <use href="#path-1"></use>
                </mask>
                <g id="Clip-421"></g>
                <polygon id="Fill-420" fill="#0C5A6F" mask="url(#mask-2)" points="-756 742 1164 742 1164 -338 -756 -338"></polygon>
            </g>
            <path d="M0,409 L0,3.071 C215.194,23.683 386.099,194.733 404.708,409 L0,409 Z" id="Combined-Shape" fill="url(#linearGradient-3)" opacity="0.695917039"></path>
            <g id="Group-598">
                <path d="M143.9509,47.2393 C135.2249,41.5573 126.2889,36.2083 117.1319,31.2473 C108.8369,26.7893 100.3749,22.6553 91.7429,18.8923 C102.5609,21.8953 113.2699,25.2673 123.8489,29.0233 C133.8489,32.6073 143.7189,36.5313 153.4409,40.8083 C152.0329,41.3043 150.7269,42.0413 149.4799,42.8563 C147.5179,44.1613 145.7029,45.6673 143.9509,47.2393 Z" id="Stroke-423" stroke="#FFFFFF" stroke-linecap="round" stroke-linejoin="round"></path>
                <path d="M70.2732,27.1475 C61.9852,22.4485 53.5112,18.0935 44.8322,14.1635 C37.1862,10.7385 29.3992,7.6495 21.4642,4.9605 C33.5272,6.4835 45.5312,8.4155 57.4592,10.7715 C68.9792,13.0805 80.4132,15.7825 91.7422,18.8915 C88.4462,19.4695 85.2322,20.4025 82.0962,21.5625 C78.0112,23.1065 74.0852,25.0205 70.2732,27.1475 Z" id="Stroke-425" stroke="#FFFFFF" stroke-linecap="round" stroke-linejoin="round"></path>
                <g id="Group-429">
                    <mask id="mask-5" fill="white">
                        <use href="#path-4"></use>
                    </mask>
                    <g id="Clip-428"></g>
                    <path d="M-12.0906,17.1116 C-19.1966,13.4656 -26.4646,10.1476 -33.9156,7.2676 C-40.2596,4.8506 -46.7166,2.7586 -53.2946,1.0766 C-40.7476,0.8496 -28.2016,1.0526 -15.6686,1.6866 C-3.2566,2.3526 9.1264,3.4416 21.4634,4.9606 C16.1864,6.0526 11.0074,7.5446 5.9254,9.3336 C-0.2406,11.5436 -6.2366,14.1796 -12.0906,17.1116 Z" id="Stroke-427" stroke="#FFFFFF" stroke-linecap="round" stroke-linejoin="round" mask="url(#mask-5)"></path>
                </g>
                <g id="Group-432" transform="translate(0.000000, 4.000000)">
                    <mask id="mask-7" fill="white">
                        <use href="#path-6"></use>
                    </mask>
                    <g id="Clip-431"></g>
                    <path d="M21.4639,0.9609 C29.3989,3.6489 37.1849,6.7379 44.8299,10.1639 C53.5099,14.0929 61.9849,18.4479 70.2729,23.1479 C56.8689,20.5399 43.3809,18.4089 29.8279,16.7319 C15.8989,15.0489 1.9209,13.8469 -12.0901,13.1119 C-6.2351,10.1789 -0.2401,7.5429 5.9269,5.3349 C11.0089,3.5439 16.1869,2.0529 21.4639,0.9609 Z" id="Stroke-430" stroke="#FFFFFF" stroke-linecap="round" stroke-linejoin="round" mask="url(#mask-7)"></path>
                </g>
                <path d="M91.7427,18.8918 C100.3757,22.6558 108.8357,26.7898 117.1317,31.2468 C126.2887,36.2088 135.2237,41.5568 143.9507,47.2388 C132.2777,43.0898 120.4547,39.3878 108.5117,36.0978 C95.8747,32.6588 83.1207,29.6848 70.2737,27.1478 C74.0857,25.0218 78.0127,23.1058 82.0967,21.5638 C85.2337,20.4018 88.4467,19.4698 91.7427,18.8918 Z" id="Stroke-433" stroke="#FFFFFF" stroke-linecap="round" stroke-linejoin="round"></path>
                <path d="M153.4412,40.8086 C162.0962,45.5536 170.5642,50.6226 178.8472,55.9866 C187.7722,61.8066 196.4682,67.9606 204.9412,74.4186 C195.5382,69.2946 185.9382,64.5516 176.1712,60.1596 C165.5972,55.4456 154.8472,51.1496 143.9512,47.2396 C145.7032,45.6686 147.5192,44.1616 149.4812,42.8576 C150.7272,42.0426 152.0322,41.3036 153.4412,40.8086 Z" id="Stroke-435" stroke="#FFFFFF" stroke-linecap="round" stroke-linejoin="round"></path>
                <g id="Group-439" transform="translate(0.000000, 17.000000)">
                    <mask id="mask-9" fill="white">
                        <use href="#path-8"></use>
                    </mask>
                    <g id="Clip-438"></g>
                    <path d="M-12.0906,0.115 C-3.7656,4.431 4.3144,9.186 12.1944,14.266 C21.3414,20.209 30.1964,26.576 38.8184,33.257 C23.1754,31.495 7.4834,30.24 -8.2396,29.474 C-24.1836,28.738 -40.1426,28.505 -56.1006,28.768 C-48.5456,22.877 -40.7836,17.259 -32.7466,12.042 C-26.0566,7.734 -19.1896,3.712 -12.0906,0.115 Z" id="Stroke-437" stroke="#FFFFFF" stroke-linecap="round" stroke-linejoin="round" mask="url(#mask-9)"></path>
                </g>
                <path d="M70.2754,27.1497 C79.6294,32.5007 88.7264,38.2797 97.5934,44.4037 C107.5074,51.2987 117.1164,58.6117 126.4584,66.2617 C112.4234,62.6687 98.2694,59.5797 84.0224,56.9487 C69.0304,54.2207 53.9564,52.0027 38.8184,50.2567 C44.3424,45.4347 50.0214,40.7907 55.9394,36.4607 C60.5554,33.1107 65.3084,29.9567 70.2754,27.1497 Z" id="Stroke-440" stroke="#FFFFFF" stroke-linecap="round" stroke-linejoin="round"></path>
                <path d="M143.9531,47.2427 C153.5131,53.5127 162.8031,60.1737 171.8441,67.1697 C181.6471,74.8037 191.1391,82.8207 200.3441,91.1657 C188.8711,86.2637 177.2091,81.8317 165.3991,77.8127 C152.5611,73.4897 139.5701,69.6567 126.4571,66.2617 C129.6841,62.3517 132.9791,58.4987 136.4181,54.7737 C138.8341,52.1707 141.3181,49.6267 143.9531,47.2427 Z" id="Stroke-442" stroke="#FFFFFF" stroke-linecap="round" stroke-linejoin="round"></path>
                <path d="M204.9443,74.4209 C213.9953,81.3639 222.7763,88.6429 231.2983,96.2249 C240.3073,104.2899 249.0093,112.6809 257.4173,121.3699 C248.8483,115.8149 240.0373,110.6539 231.0293,105.8399 C221.0063,100.5279 210.7613,95.6549 200.3443,91.1649 C201.5073,87.8589 202.6033,84.5269 203.5213,81.1429 C204.1123,78.9299 204.6343,76.6929 204.9443,74.4209 Z" id="Stroke-444" stroke="#FFFFFF" stroke-linecap="round" stroke-linejoin="round"></path>
                <path d="M252.0862,105.1599 C260.1602,112.4729 267.9722,120.0639 275.5252,127.9119 C283.3482,136.0869 290.8802,144.5299 298.1222,153.2219 C292.2072,147.6459 286.0452,142.3439 279.6702,137.2999 C272.4912,131.6619 265.0592,126.3629 257.4172,121.3699 C256.9552,118.1749 256.2672,115.0179 255.2282,111.9589 C254.4032,109.5939 253.3732,107.3099 252.0862,105.1599 Z" id="Stroke-446" stroke="#FFFFFF" stroke-linecap="round" stroke-linejoin="round"></path>
                <path d="M257.417,121.3696 C249.01,112.6816 240.308,104.2896 231.3,96.2246 C222.777,88.6426 213.995,81.3636 204.944,74.4206 C213.556,79.1496 221.988,84.1906 230.212,89.5646 C237.696,94.4906 244.995,99.6836 252.087,105.1596 C253.374,107.3106 254.403,109.5926 255.227,111.9576 C256.266,115.0186 256.955,118.1746 257.417,121.3696 Z" id="Stroke-448" stroke="#FFFFFF" stroke-linecap="round" stroke-linejoin="round"></path>
                <path d="M200.3442,91.1653 C191.1392,82.8203 181.6482,74.8043 171.8452,67.1693 C162.8032,60.1743 153.5122,53.5123 143.9532,47.2423 C154.8502,51.1533 165.6012,55.4493 176.1752,60.1643 C185.9412,64.5543 195.5412,69.2973 204.9442,74.4223 C204.6332,76.6933 204.1112,78.9283 203.5202,81.1413 C202.6022,84.5263 201.5082,87.8583 200.3442,91.1653 Z" id="Stroke-450" stroke="#FFFFFF" stroke-linecap="round" stroke-linejoin="round"></path>
                <path d="M126.458,66.2612 C117.116,58.6112 107.508,51.2982 97.595,44.4042 C88.728,38.2802 79.631,32.5012 70.274,27.1492 C83.124,29.6882 95.876,32.6612 108.514,36.1012 C120.458,39.3912 132.28,43.0932 143.953,47.2422 C141.318,49.6262 138.834,52.1692 136.416,54.7732 C132.978,58.4992 129.683,62.3512 126.458,66.2612 Z" id="Stroke-452" stroke="#FFFFFF" stroke-linecap="round" stroke-linejoin="round"></path>
                <g id="Group-456" transform="translate(0.000000, 17.000000)">
                    <mask id="mask-11" fill="white">
                        <use href="#path-10"></use>
                    </mask>
                    <g id="Clip-455"></g>
                    <path d="M38.8184,33.2566 C30.1984,26.5766 21.3414,20.2086 12.1954,14.2656 C4.3144,9.1856 -3.7656,4.4306 -12.0906,0.1146 C1.9214,0.8486 15.9004,2.0516 29.8284,3.7346 C43.3814,5.4126 56.8704,7.5426 70.2754,10.1496 C65.3084,12.9566 60.5544,16.1106 55.9374,19.4596 C50.0184,23.7906 44.3424,28.4346 38.8184,33.2566 Z" id="Stroke-454" stroke="#FFFFFF" stroke-linecap="round" stroke-linejoin="round" mask="url(#mask-11)"></path>
                </g>
                <path d="M306.7798,180.7471 C299.1318,170.1111 291.1278,159.7411 282.7608,149.6601 C274.6438,139.9371 266.1978,130.4971 257.4158,121.3681 C265.0568,126.3611 272.4908,131.6601 279.6698,137.2991 C286.0448,142.3431 292.2068,147.6431 298.1218,153.2201 C300.0568,157.1391 301.6818,161.1971 303.0398,165.3511 C304.6548,170.3901 305.8688,175.5381 306.7798,180.7471 Z" id="Stroke-457" stroke="#FFFFFF" stroke-linecap="round" stroke-linejoin="round"></path>
                <path d="M256.8728,150.9307 C247.9078,140.0297 238.5878,129.4307 228.8958,119.1697 C219.7078,109.5027 210.1978,100.1507 200.3428,91.1627 C210.7608,95.6537 221.0048,100.5277 231.0298,105.8387 C240.0358,110.6527 248.8468,115.8127 257.4158,121.3677 C257.9968,125.5957 258.1838,129.8597 258.1408,134.1237 C258.0558,139.7467 257.5768,145.3527 256.8728,150.9307 Z" id="Stroke-459" stroke="#FFFFFF" stroke-linecap="round" stroke-linejoin="round"></path>
                <path d="M186.825,124.1272 C177.028,113.3732 166.898,102.9322 156.398,92.8622 C146.732,83.6452 136.765,74.7532 126.457,66.2592 C139.569,69.6562 152.561,73.4882 165.398,77.8122 C177.209,81.8312 188.871,86.2612 200.343,91.1632 C198.661,95.9072 196.83,100.5952 194.93,105.2552 C192.336,111.5932 189.615,117.8752 186.825,124.1272 Z" id="Stroke-461" stroke="#FFFFFF" stroke-linecap="round" stroke-linejoin="round"></path>
                <path d="M97.8564,104.001 C88.0524,93.834 77.9584,83.958 67.5144,74.451 C58.2344,66.052 48.6884,57.955 38.8184,50.254 C53.9554,52 69.0304,54.22 84.0224,56.947 C98.2684,59.579 112.4224,62.667 126.4574,66.259 C122.0934,71.567 117.8614,76.982 113.7014,82.451 C108.3144,89.556 103.0494,96.751 97.8564,104.001 Z" id="Stroke-463" stroke="#FFFFFF" stroke-linecap="round" stroke-linejoin="round"></path>
                <g id="Group-467" transform="translate(0.000000, 45.000000)">
                    <mask id="mask-13" fill="white">
                        <use href="#path-12"></use>
                    </mask>
                    <g id="Clip-466"></g>
                    <path d="M-4.3503,48.8367 C-13.1503,39.6197 -22.1843,30.6287 -31.5253,21.9587 C-39.4763,14.6177 -47.6423,7.5167 -56.1013,0.7657 C-40.1423,0.5027 -24.1833,0.7367 -8.2403,1.4727 C7.4837,2.2397 23.1747,3.4927 38.8187,5.2547 C31.9017,11.3327 25.2367,17.6857 18.7377,24.2077 C10.8137,32.2007 3.1437,40.4387 -4.3503,48.8367 Z" id="Stroke-465" stroke="#FFFFFF" stroke-linecap="round" stroke-linejoin="round" mask="url(#mask-13)"></path>
                </g>
                <g id="Group-470" transform="translate(0.000000, 50.000000)">
                    <mask id="mask-15" fill="white">
                        <use href="#path-14"></use>
                    </mask>
                    <g id="Clip-469"></g>
                    <path d="M38.8184,0.2544 C48.6884,7.9544 58.2334,16.0524 67.5134,24.4524 C77.9574,33.9584 88.0524,43.8354 97.8564,54.0014 C81.2654,51.3494 64.6024,49.2014 47.8864,47.5124 C30.5104,45.7974 13.0934,44.5804 -4.3506,43.8364 C3.1444,35.4394 10.8144,27.2004 18.7404,19.2084 C25.2374,12.6864 31.9014,6.3324 38.8184,0.2544 Z" id="Stroke-468" stroke="#FFFFFF" stroke-linecap="round" stroke-linejoin="round" mask="url(#mask-15)"></path>
                </g>
                <path d="M126.457,66.259 C136.765,74.753 146.732,83.645 156.397,92.862 C166.897,102.932 177.027,113.374 186.825,124.127 C172.83,119.941 158.695,116.257 144.455,113.002 C129.018,109.516 113.476,106.536 97.856,104 C103.049,96.753 108.315,89.557 113.704,82.452 C117.863,76.983 122.093,71.567 126.457,66.259 Z" id="Stroke-471" stroke="#FFFFFF" stroke-linecap="round" stroke-linejoin="round"></path>
                <path d="M200.3433,91.1631 C210.1983,100.1501 219.7063,109.5021 228.8943,119.1701 C238.5883,129.4301 247.9073,140.0291 256.8733,150.9311 C246.2413,145.8161 235.3953,141.1771 224.3913,136.9251 C212.0313,132.1931 199.4933,127.9551 186.8253,124.1271 C189.6143,117.8751 192.3373,111.5941 194.9323,105.2581 C196.8303,100.5961 198.6623,95.9071 200.3433,91.1631 Z" id="Stroke-473" stroke="#FFFFFF" stroke-linecap="round" stroke-linejoin="round"></path>
                <path d="M257.416,121.3677 C266.198,130.4967 274.642,139.9367 282.76,149.6597 C291.126,159.7417 299.132,170.1107 306.78,180.7467 C299.526,175.3537 291.997,170.3537 284.26,165.6797 C275.358,160.3487 266.207,155.4597 256.873,150.9307 C257.577,145.3527 258.057,139.7487 258.143,134.1247 C258.185,129.8607 257.997,125.5967 257.416,121.3677 Z" id="Stroke-475" stroke="#FFFFFF" stroke-linecap="round" stroke-linejoin="round"></path>
                <path d="M298.1216,153.2197 C305.5406,162.1757 312.6436,171.3827 319.4316,180.8247 C326.3026,190.4427 332.8386,200.2887 339.0356,210.3537 C334.5656,205.2387 329.8216,200.3757 324.8506,195.7467 C319.0926,190.4327 313.0476,185.4477 306.7796,180.7467 C305.8696,175.5377 304.6546,170.3897 303.0406,165.3527 C301.6836,161.1977 300.0586,157.1407 298.1216,153.2197 Z" id="Stroke-477" stroke="#FFFFFF" stroke-linecap="round" stroke-linejoin="round"></path>
                <g id="Group-481" transform="translate(0.000000, 93.000000)">
                    <mask id="mask-17" fill="white">
                        <use href="#path-16"></use>
                    </mask>
                    <g id="Clip-480"></g>
                    <path d="M-4.3491,0.8445 C5.7569,11.4785 15.5489,22.4045 25.0909,33.5465 C35.7859,46.0845 46.1639,58.8885 56.2759,71.9005 C37.2949,70.4005 18.2839,69.3375 -0.7461,68.6875 C-20.1361,68.0615 -39.5351,67.8625 -58.9341,68.0865 C-49.6141,55.7135 -40.1021,43.4875 -30.3381,31.4605 C-21.8831,21.0805 -13.2441,10.8515 -4.3491,0.8445 Z" id="Stroke-479" stroke="#FFFFFF" stroke-linecap="round" stroke-linejoin="round" mask="url(#mask-17)"></path>
                </g>
                <path d="M97.8577,104.0076 C108.6757,115.2826 119.1267,126.8996 129.2617,138.7906 C140.2087,151.6956 150.7767,164.9116 161.0047,178.3926 C144.2797,175.3476 127.4787,172.7596 110.6217,170.5606 C92.5537,168.2416 74.4327,166.3716 56.2757,164.9006 C63.6737,153.6766 71.1477,142.5036 78.7307,131.4026 C85.0187,122.2096 91.3797,113.0676 97.8577,104.0076 Z" id="Stroke-482" stroke="#FFFFFF" stroke-linecap="round" stroke-linejoin="round"></path>
                <path d="M186.8271,124.1338 C197.2821,135.6708 207.3451,147.5518 217.0471,159.7288 C227.2021,172.5408 236.9481,185.6658 246.3071,199.0698 C233.1421,194.9568 219.8401,191.3108 206.4431,188.0298 C191.3911,184.3828 176.2361,181.1978 161.0051,178.3928 C165.9571,168.4238 170.8421,158.4218 175.6241,148.3718 C179.4421,140.3308 183.1921,132.2578 186.8271,124.1338 Z" id="Stroke-484" stroke="#FFFFFF" stroke-linecap="round" stroke-linejoin="round"></path>
                <path d="M256.8762,150.9363 C266.1832,162.3183 275.0952,174.0133 283.6232,185.9893 C292.3252,198.2823 300.6152,210.8573 308.4942,223.6923 C299.2892,219.0793 289.8702,214.9173 280.3132,211.0913 C269.1322,206.6573 257.7772,202.6883 246.3072,199.0693 C248.8282,190.2543 251.1342,181.3773 253.0922,172.4183 C254.6242,165.3083 255.9372,158.1513 256.8762,150.9363 Z" id="Stroke-486" stroke="#FFFFFF" stroke-linecap="round" stroke-linejoin="round"></path>
                <path d="M306.7832,180.7527 C314.5532,191.6257 321.9422,202.7597 328.9482,214.1387 C335.9612,225.5997 342.5772,237.2947 348.7892,249.2087 C343.1652,244.6277 337.2542,240.4227 331.1502,236.5037 C323.8232,231.8457 316.2422,227.6107 308.4942,223.6927 C308.9712,215.8107 309.1182,207.9157 308.7862,200.0247 C308.4852,193.5657 307.8632,187.1297 306.7832,180.7527 Z" id="Stroke-488" stroke="#FFFFFF" stroke-linecap="round" stroke-linejoin="round"></path>
                <path d="M339.0378,210.3594 C345.2348,220.4854 351.0808,230.8184 356.5688,241.3444 C361.9878,251.8104 367.0478,262.4534 371.7368,273.2654 C368.7748,269.1434 365.5338,265.2404 362.0668,261.5334 C357.9118,257.1404 353.4588,253.0494 348.7888,249.2084 C347.7858,242.0714 346.4328,234.9914 344.6558,228.0054 C343.1038,222.0234 341.2448,216.1304 339.0378,210.3594 Z" id="Stroke-490" stroke="#FFFFFF" stroke-linecap="round" stroke-linejoin="round"></path>
                <path d="M348.7893,249.2087 C342.5773,237.2947 335.9613,225.5997 328.9483,214.1387 C321.9423,202.7587 314.5533,191.6257 306.7833,180.7527 C313.0513,185.4547 319.0953,190.4397 324.8543,195.7547 C329.8263,200.3817 334.5683,205.2437 339.0383,210.3597 C341.2443,216.1307 343.1023,222.0227 344.6543,228.0027 C346.4313,234.9897 347.7843,242.0707 348.7893,249.2087 Z" id="Stroke-492" stroke="#FFFFFF" stroke-linecap="round" stroke-linejoin="round"></path>
                <path d="M308.4944,223.6926 C300.6154,210.8566 292.3264,198.2826 283.6234,185.9896 C275.0954,174.0136 266.1834,162.3186 256.8764,150.9366 C266.2104,155.4666 275.3614,160.3556 284.2644,165.6876 C292.0004,170.3596 299.5294,175.3596 306.7834,180.7526 C307.8614,187.1286 308.4854,193.5646 308.7854,200.0236 C309.1164,207.9146 308.9694,215.8106 308.4944,223.6926 Z" id="Stroke-494" stroke="#FFFFFF" stroke-linecap="round" stroke-linejoin="round"></path>
                <path d="M246.3071,199.0696 C236.9491,185.6656 227.2031,172.5406 217.0481,159.7286 C207.3461,147.5516 197.2821,135.6716 186.8271,124.1336 C199.4951,127.9626 212.0341,132.2006 224.3951,136.9326 C235.3981,141.1846 246.2451,145.8246 256.8761,150.9366 C255.9371,158.1516 254.6231,165.3066 253.0911,172.4166 C251.1321,181.3766 248.8281,190.2536 246.3071,199.0696 Z" id="Stroke-496" stroke="#FFFFFF" stroke-linecap="round" stroke-linejoin="round"></path>
                <path d="M161.0051,178.3923 C150.7761,164.9123 140.2101,151.6943 129.2641,138.7903 C119.1271,126.8983 108.6751,115.2823 97.8581,104.0073 C113.4781,106.5433 129.0201,109.5233 144.4571,113.0093 C158.6971,116.2643 172.8321,119.9473 186.8271,124.1333 C183.1921,132.2573 179.4401,140.3293 175.6231,148.3693 C170.8411,158.4213 165.9571,168.4233 161.0051,178.3923 Z" id="Stroke-498" stroke="#FFFFFF" stroke-linecap="round" stroke-linejoin="round"></path>
                <g id="Group-502" transform="translate(0.000000, 93.000000)">
                    <mask id="mask-19" fill="white">
                        <use href="#path-18"></use>
                    </mask>
                    <g id="Clip-501"></g>
                    <path d="M56.2764,71.9009 C46.1634,58.8889 35.7884,46.0849 25.0924,33.5459 C15.5494,22.4029 5.7584,11.4779 -4.3486,0.8449 C13.0944,1.5889 30.5114,2.8059 47.8874,4.5199 C64.6034,6.2089 81.2674,8.3559 97.8574,11.0079 C91.3804,20.0679 85.0174,29.2089 78.7284,38.4009 C71.1464,49.5019 63.6734,60.6769 56.2764,71.9009 Z" id="Stroke-500" stroke="#FFFFFF" stroke-linecap="round" stroke-linejoin="round" mask="url(#mask-19)"></path>
                </g>
                <path d="M380.0903,321.6204 C375.7943,309.3414 371.0643,297.2234 365.9253,285.2714 C360.6293,273.0554 354.9113,261.0294 348.7883,249.2054 C353.4573,253.0474 357.9103,257.1374 362.0653,261.5324 C365.5323,265.2384 368.7743,269.1414 371.7353,273.2614 C373.7773,280.6664 375.4563,288.1594 376.8083,295.7204 C378.3093,304.2994 379.3843,312.9414 380.0903,321.6204 Z" id="Stroke-503" stroke="#FFFFFF" stroke-linecap="round" stroke-linejoin="round"></path>
                <path d="M350.3511,303.7986 C344.3141,290.0716 337.8231,276.5536 330.8981,263.2516 C323.8611,249.8226 316.3891,236.6306 308.4931,223.6886 C316.2401,227.6076 323.8221,231.8416 331.1511,236.5016 C337.2531,240.4186 343.1641,244.6246 348.7881,249.2056 C349.9261,257.5556 350.5861,265.9576 350.8721,274.3796 C351.1651,284.1906 350.9531,294.0036 350.3511,303.7986 Z" id="Stroke-505" stroke="#FFFFFF" stroke-linecap="round" stroke-linejoin="round"></path>
                <path d="M298.938,285.5752 C291.007,270.5872 282.639,255.8402 273.842,241.3442 C265.079,226.9832 255.902,212.8842 246.306,199.0662 C257.776,202.6852 269.131,206.6552 280.312,211.0892 C289.87,214.9142 299.288,219.0752 308.493,223.6882 C307.881,233.2152 306.791,242.7002 305.371,252.1392 C303.645,263.3622 301.457,274.5042 298.938,285.5752 Z" id="Stroke-507" stroke="#FFFFFF" stroke-linecap="round" stroke-linejoin="round"></path>
                <path d="M222.1741,268.9023 C212.5891,253.0543 202.6231,237.4433 192.2641,222.0883 C182.2131,207.2593 171.8021,192.6813 161.0041,178.3883 C176.2351,181.1943 191.3921,184.3793 206.4441,188.0273 C219.8391,191.3083 233.1411,194.9533 246.3061,199.0663 C243.1901,209.8673 239.7541,220.5713 236.1041,231.2043 C231.7311,243.8693 227.0571,256.4253 222.1741,268.9023 Z" id="Stroke-509" stroke="#FFFFFF" stroke-linecap="round" stroke-linejoin="round"></path>
                <path d="M120.9309,256.1794 C110.4239,240.0474 99.6249,224.1094 88.5039,208.3954 C78.0539,193.6794 67.3249,179.1674 56.2749,164.8964 C74.4329,166.3674 92.5529,168.2394 110.6219,170.5584 C127.4789,172.7554 144.2799,175.3434 161.0039,178.3874 C155.0149,190.4244 148.9309,202.4144 142.7799,214.3684 C135.5779,228.3484 128.2869,242.2804 120.9309,256.1794 Z" id="Stroke-511" stroke="#FFFFFF" stroke-linecap="round" stroke-linejoin="round"></path>
                <g id="Group-515" transform="translate(0.000000, 160.000000)">
                    <mask id="mask-21" fill="white">
                        <use href="#path-20"></use>
                    </mask>
                    <g id="Clip-514"></g>
                    <path d="M2.1753,89.6841 C-8.1297,73.9191 -18.6107,58.2721 -29.3007,42.7661 C-38.9937,28.7411 -48.8567,14.8351 -58.9337,1.0821 C-39.5357,0.8581 -20.1367,1.0581 -0.7457,1.6851 C18.2833,2.3341 37.2943,3.3961 56.2753,4.8961 C47.6343,18.0231 39.0983,31.2171 30.6383,44.4601 C21.0593,59.4761 11.5773,74.5551 2.1753,89.6841 Z" id="Stroke-513" stroke="#FFFFFF" stroke-linecap="round" stroke-linejoin="round" mask="url(#mask-21)"></path>
                </g>
                <g id="Group-518" transform="translate(0.000000, 161.000000)">
                    <mask id="mask-23" fill="white">
                        <use href="#path-22"></use>
                    </mask>
                    <g id="Clip-517"></g>
                    <path d="M-58.9338,0.0825 C-48.8568,13.8355 -38.9958,27.7425 -29.3018,41.7675 C-18.6108,57.2725 -8.1298,72.9205 2.1762,88.6845 C-18.5588,88.2235 -39.2988,88.0775 -60.0378,88.2415 C-80.6158,88.4305 -101.1878,88.9265 -121.7508,89.7405 C-111.2668,73.8135 -100.5728,58.0265 -89.6338,42.4075 C-79.6178,28.1435 -69.3998,14.0215 -58.9338,0.0825 Z" id="Stroke-516" stroke="#FFFFFF" stroke-linecap="round" stroke-linejoin="round" mask="url(#mask-23)"></path>
                </g>
                <path d="M56.2754,164.8965 C67.3244,179.1675 78.0514,193.6805 88.5014,208.3965 C99.6234,224.1105 110.4234,240.0475 120.9314,256.1795 C101.6674,254.4785 82.3764,253.1105 63.0674,252.0365 C42.7824,250.9355 22.4834,250.1595 2.1754,249.6845 C11.5784,234.5545 21.0604,219.4765 30.6404,204.4605 C39.0994,191.2165 47.6364,178.0235 56.2754,164.8965 Z" id="Stroke-519" stroke="#FFFFFF" stroke-linecap="round" stroke-linejoin="round"></path>
                <path d="M161.0042,178.3879 C171.8022,192.6819 182.2122,207.2609 192.2632,222.0899 C202.6222,237.4429 212.5892,253.0539 222.1742,268.9019 C206.2742,266.2349 190.3182,263.9239 174.3262,261.8909 C156.5632,259.6619 138.7612,257.7779 120.9312,256.1799 C128.2882,242.2819 135.5792,228.3489 142.7812,214.3699 C148.9312,202.4139 155.0162,190.4249 161.0042,178.3879 Z" id="Stroke-521" stroke="#FFFFFF" stroke-linecap="round" stroke-linejoin="round"></path>
                <path d="M246.3059,199.0664 C255.9019,212.8834 265.0779,226.9844 273.8409,241.3444 C282.6379,255.8404 291.0069,270.5874 298.9379,285.5754 C287.3129,282.3414 275.5879,279.4874 263.8019,276.8994 C249.9919,273.8984 236.1069,271.2634 222.1739,268.9024 C227.0589,256.4274 231.7309,243.8704 236.1049,231.2054 C239.7549,220.5724 243.1919,209.8684 246.3059,199.0664 Z" id="Stroke-523" stroke="#FFFFFF" stroke-linecap="round" stroke-linejoin="round"></path>
                <path d="M308.4932,223.6882 C316.3892,236.6312 323.8612,249.8222 330.8982,263.2512 C337.8232,276.5532 344.3142,290.0722 350.3512,303.7982 C342.9322,300.3962 335.3442,297.3862 327.6642,294.6282 C318.2012,291.2652 308.6072,288.2892 298.9382,285.5752 C301.4572,274.5042 303.6462,263.3632 305.3722,252.1402 C306.7922,242.7002 307.8812,233.2152 308.4932,223.6882 Z" id="Stroke-525" stroke="#FFFFFF" stroke-linecap="round" stroke-linejoin="round"></path>
                <path d="M348.7883,249.2053 C354.9113,261.0293 360.6293,273.0553 365.9233,285.2733 C371.0643,297.2233 375.7943,309.3413 380.0913,321.6203 C376.1393,318.3953 371.9323,315.5123 367.5803,312.8573 C362.0173,309.5033 356.2433,306.5293 350.3513,303.7983 C350.9533,294.0033 351.1663,284.1913 350.8733,274.3803 C350.5863,265.9583 349.9273,257.5563 348.7883,249.2053 Z" id="Stroke-527" stroke="#FFFFFF" stroke-linecap="round" stroke-linejoin="round"></path>
                <path d="M371.7356,273.2617 C376.3066,283.8827 380.5166,294.6527 384.3496,305.5627 C388.0366,316.1587 391.3666,326.8727 394.3196,337.6977 C392.6876,334.9447 390.7976,332.3637 388.7126,329.9367 C386.0826,326.9187 383.1746,324.1687 380.0906,321.6207 C379.3846,312.9407 378.3086,304.2997 376.8086,295.7217 C375.4566,288.1607 373.7776,280.6657 371.7356,273.2617 Z" id="Stroke-529" stroke="#FFFFFF" stroke-linecap="round" stroke-linejoin="round"></path>
                <g id="Group-533" transform="translate(379.000000, 384.000000)">
                    <mask id="mask-25" fill="white">
                        <use href="#path-24"></use>
                    </mask>
                    <g id="Clip-532"></g>
                    <path d="M14.9802,74.6465 C13.5402,62.5455 11.6152,50.5125 9.2672,38.5555 C6.6972,25.6855 3.6392,12.9235 0.1482,0.2725 C4.2102,1.4925 8.2362,2.8435 12.1592,4.4645 C14.8962,5.6115 17.5822,6.8875 20.1182,8.4355 C20.1742,19.0325 19.7842,29.6225 19.0032,40.1905 C18.1122,51.7255 16.7522,63.2155 14.9802,74.6465 Z" id="Stroke-531" stroke="#FFFFFF" stroke-linecap="round" stroke-linejoin="round" mask="url(#mask-25)"></path>
                </g>
                <g id="Group-536" transform="translate(339.000000, 375.000000)">
                    <mask id="mask-27" fill="white">
                        <use href="#path-26"></use>
                    </mask>
                    <g id="Clip-535"></g>
                    <path d="M26.2312,85.4578 C23.0752,71.5428 19.4112,57.7528 15.3122,44.0868 C10.8632,29.4068 5.9192,14.8868 0.5372,0.5238 C8.1242,1.8278 15.6872,3.2638 23.2032,4.9318 C28.8942,6.2078 34.5552,7.6138 40.1482,9.2728 C38.9112,21.5278 37.1632,33.7208 34.9852,45.8428 C32.5542,59.1528 29.6102,72.3578 26.2312,85.4578 Z" id="Stroke-534" stroke="#FFFFFF" stroke-linecap="round" stroke-linejoin="round" mask="url(#mask-27)"></path>
                </g>
                <g id="Group-539" transform="translate(274.000000, 366.000000)">
                    <mask id="mask-29" fill="white">
                        <use href="#path-28"></use>
                    </mask>
                    <g id="Clip-538"></g>
                    <path d="M39.4805,96.3208 C34.1055,80.5858 28.2655,65.0168 22.0295,49.6028 C15.3515,33.2068 8.2305,16.9988 0.7115,0.9718 C12.6625,2.2138 24.6005,3.5888 36.5135,5.1638 C46.2115,6.4578 55.8915,7.8828 65.5375,9.5238 C62.3295,23.5778 58.6215,37.5078 54.5095,51.3238 C49.9565,66.4728 44.9215,81.4678 39.4805,96.3208 Z" id="Stroke-537" stroke="#FFFFFF" stroke-linecap="round" stroke-linejoin="round" mask="url(#mask-29)"></path>
                </g>
                <g id="Group-542" transform="translate(182.000000, 359.000000)">
                    <mask id="mask-31" fill="white">
                        <use href="#path-30"></use>
                    </mask>
                    <g id="Clip-541"></g>
                    <path d="M52.5457,105.0374 C44.7817,87.7014 36.6607,70.5284 28.2237,53.5084 C19.3767,35.7324 10.1877,18.1294 0.6847,0.6944 C17.1387,1.6784 33.5827,2.7994 50.0147,4.0994 C64.2607,5.2374 78.4947,6.5104 92.7117,7.9724 C87.0467,23.7844 80.9787,39.4474 74.5797,54.9774 C67.6017,71.8234 60.2397,88.5054 52.5457,105.0374 Z" id="Stroke-540" stroke="#FFFFFF" stroke-linecap="round" stroke-linejoin="round" mask="url(#mask-31)"></path>
                </g>
                <g id="Group-545" transform="translate(67.000000, 354.000000)">
                    <mask id="mask-33" fill="white">
                        <use href="#path-32"></use>
                    </mask>
                    <g id="Clip-544"></g>
                    <path d="M62.0872,111.3547 C52.3052,92.8877 42.3122,74.5357 32.1262,56.2887 C21.7322,37.7117 11.1372,19.2467 0.3462,0.8967 C20.3742,1.4197 40.3982,2.0857 60.4152,2.9157 C78.8462,3.6927 97.2702,4.6077 115.6852,5.6947 C107.5042,22.9987 99.0732,40.1827 90.4272,57.2587 C81.2132,75.4117 71.7582,93.4407 62.0872,111.3547 Z" id="Stroke-543" stroke="#FFFFFF" stroke-linecap="round" stroke-linejoin="round" mask="url(#mask-33)"></path>
                </g>
                <g id="Group-548" transform="translate(0.000000, 353.000000)">
                    <mask id="mask-35" fill="white">
                        <use href="#path-34"></use>
                    </mask>
                    <g id="Clip-547"></g>
                    <path d="M4.4944,113.0295 C-6.3496,94.1185 -17.2376,75.2315 -28.1696,56.3715 C-38.9806,37.7335 -49.8346,19.1195 -60.7356,0.5325 C-39.1506,0.4535 -17.5666,0.5245 4.0184,0.7485 C25.1304,0.9815 46.2394,1.3595 67.3464,1.8965 C57.1994,20.1895 46.9744,38.4385 36.6814,56.6485 C26.0254,75.4845 15.2954,94.2775 4.4944,113.0295 Z" id="Stroke-546" stroke="#FFFFFF" stroke-linecap="round" stroke-linejoin="round" mask="url(#mask-35)"></path>
                </g>
                <g id="Group-551" transform="translate(0.000000, 353.000000)">
                    <mask id="mask-37" fill="white">
                        <use href="#path-36"></use>
                    </mask>
                    <g id="Clip-550"></g>
                    <path d="M-60.7354,0.5327 C-49.8354,19.1197 -38.9824,37.7347 -28.1724,56.3737 C-17.2384,75.2327 -6.3494,94.1177 4.4946,113.0297 C-17.3084,113.0777 -39.1114,113.0917 -60.9154,113.0747 C-82.5354,113.0547 -104.1544,113.0037 -125.7734,112.9187 C-115.0974,94.0547 -104.3314,75.2407 -93.4774,56.4777 C-82.6514,37.7777 -71.7384,19.1297 -60.7354,0.5327 Z" id="Stroke-549" stroke="#FFFFFF" stroke-linecap="round" stroke-linejoin="round" mask="url(#mask-37)"></path>
                </g>
                <g id="Group-554" transform="translate(4.000000, 354.000000)">
                    <mask id="mask-39" fill="white">
                        <use href="#path-38"></use>
                    </mask>
                    <g id="Clip-553"></g>
                    <path d="M63.3464,0.897 C74.1374,19.248 84.7314,37.713 95.1234,56.291 C105.3114,74.537 115.3034,92.889 125.0874,111.355 C104.8764,111.531 84.6644,111.673 64.4504,111.783 C43.1314,111.898 21.8134,111.98 0.4944,112.03 C11.2964,93.278 22.0274,74.485 32.6834,55.65 C42.9764,37.44 53.2004,19.189 63.3464,0.897 Z" id="Stroke-552" stroke="#FFFFFF" stroke-linecap="round" stroke-linejoin="round" mask="url(#mask-39)"></path>
                </g>
                <g id="Group-557" transform="translate(129.000000, 359.000000)">
                    <mask id="mask-41" fill="white">
                        <use href="#path-40"></use>
                    </mask>
                    <g id="Clip-556"></g>
                    <path d="M53.6853,0.6946 C63.1883,18.1296 72.3753,35.7326 81.2223,53.5096 C89.6583,70.5296 97.7803,87.7006 105.5473,105.0376 C88.9773,105.3136 72.4083,105.5516 55.8383,105.7606 C37.2543,105.9936 18.6713,106.1886 0.0873,106.3546 C9.7583,88.4416 19.2143,70.4136 28.4293,52.2616 C37.0743,35.1836 45.5053,17.9996 53.6853,0.6946 Z" id="Stroke-555" stroke="#FFFFFF" stroke-linecap="round" stroke-linejoin="round" mask="url(#mask-41)"></path>
                </g>
                <g id="Group-560" transform="translate(234.000000, 366.000000)">
                    <mask id="mask-43" fill="white">
                        <use href="#path-42"></use>
                    </mask>
                    <g id="Clip-559"></g>
                    <path d="M40.7112,0.9719 C48.2292,16.9999 55.3502,33.2079 62.0282,49.6039 C68.2642,65.0179 74.1052,80.5859 79.4802,96.3209 C67.4922,96.6569 55.5022,96.9479 43.5132,97.2109 C29.1902,97.5229 14.8692,97.7939 0.5452,98.0369 C8.2402,81.5059 15.6032,64.8249 22.5812,47.9789 C28.9802,32.4479 35.0482,16.7859 40.7112,0.9719 Z" id="Stroke-558" stroke="#FFFFFF" stroke-linecap="round" stroke-linejoin="round" mask="url(#mask-43)"></path>
                </g>
                <g id="Group-563" transform="translate(313.000000, 375.000000)">
                    <mask id="mask-45" fill="white">
                        <use href="#path-44"></use>
                    </mask>
                    <g id="Clip-562"></g>
                    <path d="M26.5376,0.5242 C31.9186,14.8882 36.8636,29.4082 41.3106,44.0872 C45.4116,57.7542 49.0756,71.5422 52.2316,85.4582 C44.6816,85.8142 37.1286,86.1172 29.5766,86.3922 C19.8786,86.7432 10.1796,87.0462 0.4806,87.3212 C5.9216,72.4692 10.9566,57.4742 15.5096,42.3252 C19.6226,28.5092 23.3296,14.5782 26.5376,0.5242 Z" id="Stroke-561" stroke="#FFFFFF" stroke-linecap="round" stroke-linejoin="round" mask="url(#mask-45)"></path>
                </g>
                <g id="Group-566" transform="translate(365.000000, 384.000000)">
                    <mask id="mask-47" fill="white">
                        <use href="#path-46"></use>
                    </mask>
                    <g id="Clip-565"></g>
                    <path d="M14.1479,0.2727 C17.6389,12.9237 20.6969,25.6857 23.2659,38.5567 C25.6149,50.5127 27.5399,62.5457 28.9799,74.6467 C25.0239,74.9987 21.0629,75.2807 17.0979,75.5357 C11.4789,75.8927 5.8559,76.1897 0.2309,76.4577 C3.6099,63.3577 6.5549,50.1527 8.9869,36.8447 C11.1629,24.7207 12.9109,12.5287 14.1479,0.2727 Z" id="Stroke-564" stroke="#FFFFFF" stroke-linecap="round" stroke-linejoin="round" mask="url(#mask-47)"></path>
                </g>
                <g id="Group-569" transform="translate(393.000000, 392.000000)">
                    <mask id="mask-49" fill="white">
                        <use href="#path-48"></use>
                    </mask>
                    <g id="Clip-568"></g>
                    <path d="M6.1179,0.4358 C8.1829,11.4708 9.8589,22.5708 11.1139,33.7278 C12.2509,44.1298 13.0199,54.5638 13.3899,65.0198 C11.8629,65.3588 10.3159,65.5938 8.7669,65.8038 C6.1779,66.1498 3.5799,66.4118 0.9799,66.6468 C2.7529,55.2148 4.1119,43.7268 5.0039,32.1918 C5.7859,21.6228 6.1739,11.0328 6.1179,0.4358 Z" id="Stroke-567" stroke="#FFFFFF" stroke-linecap="round" stroke-linejoin="round" mask="url(#mask-49)"></path>
                </g>
                <g id="Group-572" transform="translate(0.000000, 249.000000)">
                    <mask id="mask-51" fill="white">
                        <use href="#path-50"></use>
                    </mask>
                    <g id="Clip-571"></g>
                    <path d="M2.1763,0.6941 C13.2153,17.6191 24.0493,34.6761 34.7013,51.8471 C45.7803,69.7461 56.6593,87.7671 67.3463,105.9031 C46.2403,105.3651 25.1303,104.9861 4.0183,104.7521 C-17.5667,104.5291 -39.1507,104.4591 -60.7357,104.5391 C-50.0907,86.5671 -39.3627,68.6451 -28.5407,50.7791 C-18.3867,34.0321 -8.1537,17.3331 2.1763,0.6941 Z" id="Stroke-570" stroke="#FFFFFF" stroke-linecap="round" stroke-linejoin="round" mask="url(#mask-51)"></path>
                </g>
                <path d="M120.9321,256.1895 C131.8161,272.9585 142.3791,289.9295 152.6361,307.0895 C162.9731,324.4425 172.9911,341.9815 182.6851,359.7015 C164.2701,358.6125 145.8461,357.6965 127.4151,356.9195 C107.3981,356.0905 87.3741,355.4255 67.3461,354.9035 C76.8521,337.7525 86.2901,320.5635 95.6481,303.3285 C104.1491,287.6555 112.5831,271.9455 120.9321,256.1895 Z" id="Stroke-573" stroke="#FFFFFF" stroke-linecap="round" stroke-linejoin="round"></path>
                <path d="M222.175,268.9124 C231.815,284.9274 241.06,301.1724 249.902,317.6414 C258.577,333.8804 266.856,350.3254 274.711,366.9774 C260.496,365.5154 246.26,364.2414 232.015,363.1024 C215.583,361.8044 199.138,360.6844 182.684,359.7004 C190.139,343.8844 197.381,327.9684 204.357,311.9364 C210.531,297.6924 216.494,283.3594 222.175,268.9124 Z" id="Stroke-575" stroke="#FFFFFF" stroke-linecap="round" stroke-linejoin="round"></path>
                <path d="M298.9404,285.584 C306.7314,300.397 314.0904,315.43 320.9894,330.679 C327.6234,345.44 333.8194,360.389 339.5374,375.529 C329.8924,373.888 320.2114,372.461 310.5134,371.166 C298.6004,369.592 286.6634,368.219 274.7114,366.978 C279.7714,352.761 284.5004,338.432 288.8054,323.969 C292.5524,311.272 295.9684,298.483 298.9404,285.584 Z" id="Stroke-577" stroke="#FFFFFF" stroke-linecap="round" stroke-linejoin="round"></path>
                <path d="M350.3521,303.8076 C356.1841,317.1686 361.5771,330.7126 366.4991,344.4356 C371.1681,357.5696 375.4001,370.8506 379.1481,384.2766 C373.5561,382.6176 367.8941,381.2096 362.2031,379.9336 C354.6881,378.2666 347.1241,376.8326 339.5381,375.5286 C342.3701,362.9596 344.7981,350.3056 346.7171,337.5636 C348.3651,326.3606 349.6171,315.1076 350.3521,303.8076 Z" id="Stroke-579" stroke="#FFFFFF" stroke-linecap="round" stroke-linejoin="round"></path>
                <path d="M380.0925,321.6282 C384.1985,333.4732 387.8965,345.4532 391.1555,357.5592 C394.2225,369.0892 396.8885,380.7192 399.1175,392.4392 C396.5825,390.8912 393.8965,389.6152 391.1595,388.4672 C387.2375,386.8462 383.2115,385.4962 379.1475,384.2772 C380.2215,373.2602 380.8815,362.2112 381.0395,351.1422 C381.1455,341.2942 380.8555,331.4492 380.0925,321.6282 Z" id="Stroke-581" stroke="#FFFFFF" stroke-linecap="round" stroke-linejoin="round"></path>
                <path d="M399.1179,392.439 C396.8879,380.718 394.2219,369.089 391.1559,357.559 C387.8969,345.452 384.1989,333.473 380.0929,321.628 C383.1759,324.177 386.0849,326.928 388.7149,329.945 C390.7999,332.371 392.6889,334.951 394.3199,337.704 C395.8039,346.285 396.9329,354.919 397.7339,363.591 C398.5879,373.186 399.0349,382.807 399.1179,392.439 Z" id="Stroke-583" stroke="#FFFFFF" stroke-linecap="round" stroke-linejoin="round"></path>
                <path d="M379.1479,384.2771 C375.3999,370.8501 371.1689,357.5691 366.4999,344.4351 C361.5779,330.7121 356.1839,317.1681 350.3519,303.8081 C356.2439,306.5381 362.0199,309.5121 367.5829,312.8671 C371.9339,315.5211 376.1419,318.4031 380.0929,321.6281 C380.8559,331.4471 381.1459,341.2931 381.0399,351.1411 C380.8809,362.2101 380.2219,373.2601 379.1479,384.2771 Z" id="Stroke-585" stroke="#FFFFFF" stroke-linecap="round" stroke-linejoin="round"></path>
                <path d="M339.5376,375.5286 C333.8206,360.3896 327.6236,345.4396 320.9896,330.6776 C314.0916,315.4296 306.7316,300.3966 298.9406,285.5836 C308.6096,288.2996 318.2036,291.2756 327.6666,294.6396 C335.3466,297.3956 342.9336,300.4056 350.3516,303.8076 C349.6156,315.1076 348.3656,326.3596 346.7156,337.5626 C344.7976,350.3046 342.3696,362.9596 339.5376,375.5286 Z" id="Stroke-587" stroke="#FFFFFF" stroke-linecap="round" stroke-linejoin="round"></path>
                <path d="M274.7112,366.9775 C266.8572,350.3255 258.5782,333.8805 249.9032,317.6405 C241.0612,301.1715 231.8162,284.9255 222.1752,268.9125 C236.1082,271.2745 249.9932,273.9095 263.8042,276.9115 C275.5892,279.4995 287.3142,282.3525 298.9402,285.5835 C295.9672,298.4835 292.5512,311.2705 288.8042,323.9665 C284.4992,338.4305 279.7712,352.7605 274.7112,366.9775 Z" id="Stroke-589" stroke="#FFFFFF" stroke-linecap="round" stroke-linejoin="round"></path>
                <path d="M182.6853,359.7012 C172.9913,341.9802 162.9743,324.4412 152.6373,307.0872 C142.3813,289.9282 131.8153,272.9572 120.9323,256.1892 C138.7613,257.7892 156.5643,259.6742 174.3273,261.9042 C190.3203,263.9362 206.2753,266.2462 222.1753,268.9122 C216.4933,283.3592 210.5293,297.6912 204.3543,311.9332 C197.3793,327.9672 190.1373,343.8842 182.6853,359.7012 Z" id="Stroke-591" stroke="#FFFFFF" stroke-linecap="round" stroke-linejoin="round"></path>
                <path d="M67.3464,354.9036 C56.6604,336.7676 45.7824,318.7446 34.7024,300.8456 C24.0514,283.6746 13.2164,266.6186 2.1764,249.6946 C22.4844,250.1716 42.7834,250.9486 63.0674,252.0496 C82.3774,253.1226 101.6684,254.4896 120.9324,256.1896 C112.5824,271.9446 104.1474,287.6546 95.6454,303.3266 C86.2894,320.5616 76.8524,337.7506 67.3464,354.9036 Z" id="Stroke-593" stroke="#FFFFFF" stroke-linecap="round" stroke-linejoin="round"></path>
                <g id="Group-597" transform="translate(0.000000, 249.000000)">
                    <mask id="mask-53" fill="white">
                        <use href="#path-52"></use>
                    </mask>
                    <g id="Clip-596"></g>
                    <path d="M-60.7354,104.5393 C-71.1854,86.7273 -81.6774,68.9403 -92.2174,51.1813 C-102.0184,34.6793 -111.8604,18.2003 -121.7514,1.7513 C-101.1894,0.9383 -80.6164,0.4443 -60.0384,0.2553 C-39.2984,0.0903 -18.5594,0.2353 2.1766,0.6943 C-8.1544,17.3333 -18.3894,34.0303 -28.5424,50.7773 C-39.3634,68.6433 -50.0914,86.5673 -60.7354,104.5393 Z" id="Stroke-595" stroke="#FFFFFF" stroke-linecap="round" stroke-linejoin="round" mask="url(#mask-53)"></path>
                </g>
            </g>
        </g>
    </g>
</svg>
